<svg enable-background="new 0 0 100 100" height="512" viewBox="0 0 100 100" width="512" xmlns="http://www.w3.org/2000/svg"><g id="Layer_35"><g><g><path clip-rule="evenodd" d="m17.1 89.4h51.5c2.4 0 4.4-2 4.4-4.4v-38.3c3.8-3.8 6.2-9.1 6.2-14.9 0-11.7-9.5-21.1-21.1-21.1-6 0-9.7 3.2-15.2 3.2s-9.3-3.2-15.2-3.2c-11.7-.1-21.2 9.4-21.2 21.1 0 5.8 2.4 11.1 6.2 14.9v38.3c0 2.4 2 4.4 4.4 4.4z" fill="#fcaa62" fill-rule="evenodd"/></g><g><path clip-rule="evenodd" d="m22.4 81.9h41c1.2 0 2.3-1 2.3-2.3v-36l2.2-2.2c2.6-2.6 4-6 4-9.7 0-7.6-6.1-13.7-13.7-13.7-2.4 0-4.8 1-7 1.7-2.7.9-5.4 1.4-8.3 1.4s-5.5-.6-8.3-1.4c-2.2-.7-4.6-1.7-7-1.7-7.6 0-13.7 6.1-13.7 13.7 0 3.6 1.4 7.1 4 9.7l2.2 2.2v36.1c0 1.2 1 2.2 2.3 2.2z" fill="#ffddce" fill-rule="evenodd"/></g><g><path clip-rule="evenodd" d="m57.1 45.9v36.1h6.3c1.2 0 2.3-1 2.3-2.3v-36.1l2.2-2.2c2.6-2.6 4-6 4-9.7 0-6.3-4.3-11.6-10.1-13.2 1 2.4 1.5 5.1 1.5 7.9 0 4.7-1.5 8.9-4 12.4-2.6 3.5-2.1 2.8-2.2 7.1z" fill="#e8c9bc" fill-rule="evenodd"/></g><g><path clip-rule="evenodd" d="m65.6 43.6v36.1c0 1.2-1 2.3-2.3 2.3h-6.3v3c0 2.4-2 4.4-4.4 4.4h16c2.4 0 4.4-2 4.4-4.4v-38.3c3.8-3.8 6.2-9.1 6.2-14.9 0-11.7-9.5-21.1-21.1-21.1-.6 0-1.3 0-1.8.1 2.4 2.1 4.3 4.8 5.5 7.8 5.8 1.6 10.1 6.9 10.1 13.2 0 3.6-1.4 7.1-4 9.7z" fill="#e09757" fill-rule="evenodd"/></g><g><path clip-rule="evenodd" d="m33.5 82.2c0 4 3.8 7.2 8.4 7.2h43.1c4.6 0 8.4-3.2 8.4-7.2v-1.7c0-9.7-6.5-18.2-15.9-22.5-4.2-1.9-9-3-14.1-3s-9.9 1.1-14.1 3c-9.4 4.3-15.9 12.8-15.9 22.5v1.7z" fill="#fb8c2b" fill-rule="evenodd"/></g><g><path clip-rule="evenodd" d="m77.6 61c6.5 4.7 10.6 11.7 10.6 19.4v1.7c0 4-3.8 7.2-8.4 7.2h5.3c4.6 0 8.4-3.2 8.4-7.2v-1.7c0-9.7-6.5-18.2-15.9-22.5-4.2-1.9-9-3-14.1-3-.9 0-1.8 0-2.7.1.9.1 1.8.2 2.7.3 3.1.5 6.1 1.4 8.8 2.6 1.9.9 3.7 1.9 5.3 3.1z" fill="#d97a27" fill-rule="evenodd"/></g><g><path d="m32.6 28.3c-.8 0-1.5.7-1.5 1.5s.7 1.5 1.5 1.5 1.5-.7 1.5-1.5-.7-1.5-1.5-1.5z"/><path d="m30.9 35.8c-.8 0-1.5.7-1.5 1.5s.7 1.5 1.5 1.5 1.5-.7 1.5-1.5-.7-1.5-1.5-1.5z"/><path d="m38.3 35.8c-.8 0-1.5.7-1.5 1.5s.7 1.5 1.5 1.5 1.5-.7 1.5-1.5-.6-1.5-1.5-1.5z"/><path d="m74.5 55.1v-7.8c4-4.2 6.2-9.7 6.2-15.5 0-12.5-10.1-22.6-22.6-22.6-3.3 0-5.9.9-8.4 1.7-2.2.7-4.4 1.5-6.8 1.5-2.5 0-4.6-.7-6.8-1.5-2.5-.8-5.1-1.7-8.4-1.7-12.6-.1-22.7 10.1-22.7 22.6 0 5.8 2.2 11.3 6.2 15.5v37.6c0 3.3 2.7 5.9 5.9 5.9h68c5.5 0 9.9-3.9 9.9-8.7v-1.7c0-11.5-8.5-21.4-20.5-25.3zm-57.4 32.8c-1.6 0-2.9-1.3-2.9-2.9v-38.3c0-.4-.2-.8-.4-1.1-3.8-3.7-5.8-8.6-5.8-13.8 0-10.8 8.8-19.6 19.6-19.6 2.8 0 5.1.7 7.4 1.5 2.4.8 4.8 1.6 7.8 1.6s5.4-.8 7.8-1.6 4.6-1.5 7.5-1.5c10.8 0 19.6 8.8 19.6 19.6 0 5.2-2 10.2-5.7 13.9-.3.3-.4.7-.4 1.1v7.6c-1.4-.3-2.9-.6-4.4-.7v-9.4l1.7-1.7c2.9-2.9 4.5-6.7 4.5-10.7 0-8.4-6.8-15.2-15.2-15.2-2.2 0-4.3.7-6.2 1.4-.4.1-.8.3-1.3.4-3 1-5.4 1.4-7.8 1.4s-4.8-.4-7.8-1.4c-.4-.1-.8-.3-1.3-.4-2-.7-4-1.4-6.2-1.4-8.4 0-15.2 6.8-15.2 15.2 0 4.1 1.6 7.9 4.4 10.7l1.7 1.7v35.4c0 2.1 1.7 3.8 3.8 3.8h9.7c.3 1.7 1.1 3.2 2.3 4.4zm14.9-7.5h-9.6c-.4 0-.8-.3-.8-.8v-36c0-.4-.2-.8-.4-1.1l-2.2-2.1c-2.3-2.3-3.6-5.4-3.6-8.6 0-6.7 5.5-12.2 12.2-12.2 1.7 0 3.5.6 5.2 1.2.4.1.9.3 1.3.4 3.3 1.1 6 1.5 8.7 1.5s5.4-.5 8.7-1.5c.4-.1.9-.3 1.3-.4 1.7-.6 3.6-1.2 5.2-1.2 6.7 0 12.2 5.5 12.2 12.2 0 3.3-1.3 6.3-3.6 8.6l-2.2 2.2c-.3.3-.4.7-.4 1.1v9.8c-.2 0-.4 0-.6 0-17.3-.1-31.4 12-31.4 26.9zm60 1.8c0 3.1-3.1 5.7-6.9 5.7h-43.2c-3.8 0-6.9-2.6-6.9-5.7v-1.7c0-8.4 5.1-15.8 12.9-20.1v6.3c0 .8.7 1.5 1.5 1.5s1.5-.7 1.5-1.5v-7.7c3.4-1.4 7.1-2.3 11.1-2.5v8.4c0 .8.7 1.5 1.5 1.5s1.5-.7 1.5-1.5v-8.4c4 .2 7.7 1 11.1 2.5v7.7c0 .8.7 1.5 1.5 1.5s1.5-.7 1.5-1.5v-6.3c7.8 4.3 12.9 11.7 12.9 20.1z"/></g></g></g></svg>