<svg enable-background="new 0 0 100 100" height="512" viewBox="0 0 100 100" width="512" xmlns="http://www.w3.org/2000/svg"><g id="Layer_35"><g><g><path clip-rule="evenodd" d="m19.3 6.5h43.7v9.3h-43.7z" fill="#b1dbfc" fill-rule="evenodd"/></g><g><path clip-rule="evenodd" d="m12.6 29.1h57.1l-6.7-13.3h-43.7z" fill="#e5f2ff" fill-rule="evenodd"/></g><g><path clip-rule="evenodd" d="m12.6 29.1h57.1v24.8h-57.1z" fill="#b1dbfc" fill-rule="evenodd"/></g><g><path clip-rule="evenodd" d="m12.6 77.5h57.1v16h-57.1z" fill="#b1dbfc" fill-rule="evenodd"/></g><g><path clip-rule="evenodd" d="m55.9 6.5h7.1v9.3h-7.1z" fill="#a7cce8" fill-rule="evenodd"/></g><g><path clip-rule="evenodd" d="m55.9 15.8 6.7 13.3h7.1l-6.7-13.3z" fill="#cdd9e6" fill-rule="evenodd"/></g><g><path clip-rule="evenodd" d="m62.6 29.1v22.7c-1 .6-1.9 1.3-2.8 2.1h2.8 7.1v-24.8z" fill="#a7cce8" fill-rule="evenodd"/></g><g><path clip-rule="evenodd" d="m12.6 53.9h57.1v23.6h-57.1z" fill="#e5f2ff" fill-rule="evenodd"/></g><g><path clip-rule="evenodd" d="m62.6 77.5v14c-4.7-2.5-7.9-7.2-8.2-14h-3.6c.3 7.3 4.3 14.1 11.7 16h7.1v-16z" fill="#a7cce8" fill-rule="evenodd"/></g><g><path clip-rule="evenodd" d="m62.6 53.9h7.1v23.6h-7.1z" fill="#cdd9e6" fill-rule="evenodd"/></g><g><path clip-rule="evenodd" d="m59.8 53.9c-5.3 5-9 14.7-9 22.5v1.1h3.6c0-.4 0-.7 0-1.1 0-7.4 3.3-16.5 8.2-21.7v-.7h-2.8z" fill="#cdd9e6" fill-rule="evenodd"/></g><g><path clip-rule="evenodd" d="m54.4 76.4c0 11.1 7.4 17.1 16.5 17.1s16.5-6 16.5-17.1-7.4-25.9-16.5-25.9-16.5 14.8-16.5 25.9z" fill="#e5f2ff" fill-rule="evenodd"/></g><g><path clip-rule="evenodd" d="m68.2 50.9c7.9 2.5 13.8 15.5 13.8 25.5s-6 15.9-13.8 16.9c.9.1 1.8.2 2.7.2 9.1 0 16.5-6 16.5-17.1s-7.4-25.9-16.5-25.9c-.9 0-1.8.1-2.7.4z" fill="#cdd9e6" fill-rule="evenodd"/></g><g><path clip-rule="evenodd" d="m63.9 77.8c0 3.9 3.1 7 7 7s7-3.1 7-7-3.1-7-7-7-7 3.2-7 7z" fill="#f7e679" fill-rule="evenodd"/></g><g><path d="m71.2 49v-19.9c0-.2-.1-.5-.2-.7l-6.5-12.9v-9c0-.8-.6-1.5-1.5-1.5h-43.7c-.8 0-1.5.7-1.5 1.5v9l-6.5 12.9c-.1.2-.2.4-.2.7v64.4c0 .8.7 1.5 1.5 1.5h58.3c10.7 0 18-7.5 18-18.6 0-10.9-7.4-27.1-17.7-27.4zm-18.3 27h-38.8v-20.6h45.9c-4.3 5.7-7 14-7.1 20.6zm9.9-23.6h-48.7v-21.8h54.1v18.7c-1.9.6-3.7 1.7-5.4 3.1zm4.5-24.8h-52.2l5.2-10.3h41.9zm-5.8-19.6v6.3h-40.7v-6.3zm-47.4 84v-13h38.9c.6 5.7 3.3 10.2 7.3 13zm56.8 0c-9.1 0-15-6.1-15-15.6 0-10.8 7-24.4 15-24.4 7.9 0 15 13.6 15 24.4 0 9.5-5.9 15.6-15 15.6z"/><path d="m70.9 69.3c-4.7 0-8.5 3.8-8.5 8.5s3.8 8.5 8.5 8.5 8.5-3.8 8.5-8.5-3.8-8.5-8.5-8.5zm0 14c-3 0-5.5-2.5-5.5-5.5s2.5-5.5 5.5-5.5 5.5 2.5 5.5 5.5c0 3.1-2.5 5.5-5.5 5.5z"/></g></g></g></svg>