<svg enable-background="new 0 0 100 100" height="512" viewBox="0 0 100 100" width="512" xmlns="http://www.w3.org/2000/svg"><g id="Layer_35"><g><g><path clip-rule="evenodd" d="m28.9 26.6c-23.8 5.7-27.7 31.9-16.2 48.9 19.9 29.6 64.9 13.7 76.2-20.1 2.6-7.7 3.9-15.8 4.4-23.4v-9.4c-2-16.1-19-17.3-26.5-7-6 8.3-11.4 11.9-21.5 11.4-5.3-.3-11.3-1.6-16.4-.4z" fill="#cc4752" fill-rule="evenodd"/></g><g><path clip-rule="evenodd" d="m66.8 15.6c-.3.4-.5.7-.8 1.1 2.6.8 4.9 2.4 6.6 4.9.3-.4.6-.8.9-1.2 1.6-2.3 4.6-3.8 7.4-3.1 3.7.9 4.5 5.5 4.5 8.8 0 3-.2 6.1-.5 9.2-.3 3.3-1.2 3.7-2.5 4.6l-4 2.1c-1 .6-2.1 1.2-3.1 1.7-.4 3.2-.9 6.5-1.6 9.8 1.8-.7 3.6-1.6 5.3-2.5 3.6-2 1.7 3.3 1.2 4.6-2.6 6.3-6.9 11.8-11.9 16.5-.7.7-1.4 1.1-2.1 1.2-4.3 7-10.2 12.8-16.8 17 16.9-3.1 33.5-16.3 39.7-35 2.6-7.7 3.9-15.8 4.4-23.4v-9.4c-2.3-16-19.2-17.2-26.7-6.9z" fill="#a83943" fill-rule="evenodd"/></g><g><path clip-rule="evenodd" d="m59.1 56.8c-.4.9-.5 1.5-.9 2.4-.6 1.2-1.1 2.5-1.2 3.8-.3 3.4 1.8 6.9 4.3 8.8s4.6 2.5 6.8.4c5-4.7 9.3-10.2 11.9-16.5.5-1.3 2.4-6.6-1.2-4.6-2.7 1.5-5.6 2.8-8.7 3.5-2.3.5-4.5.6-6.7.2-2.7-.5-3.6.5-4.3 2z" fill="#ff7f85" fill-rule="evenodd"/></g><g><path clip-rule="evenodd" d="m58.8 33.1c-2.2.9-2.8 2.8-2.4 4.1.5 1.7 1.1 2.9 1.7 4.5.7 1.8 1.6 3.3 4.5 4.4 5.8 2.2 10.7-1.4 15.7-4.1l4-2.1c1.4-.9 2.2-1.3 2.5-4.6.3-3.1.5-6.2.5-9.2 0-3.2-.7-7.9-4.5-8.8-2.8-.7-5.8.9-7.4 3.1-4.4 6.1-9 10.3-14.6 12.7z" fill="#ff7f85" fill-rule="evenodd"/></g><g><path clip-rule="evenodd" d="m72.6 21.6c2 2.8 3.2 6.6 3.2 11.7 0 3.4-.2 6.9-.6 10.5 1-.6 2.1-1.2 3.1-1.7l4-2.1c1.4-.9 2.2-1.3 2.5-4.6.3-3.1.5-6.2.5-9.2 0-3.2-.7-7.9-4.5-8.8-2.8-.7-5.8.9-7.4 3.1-.3.3-.6.7-.8 1.1z" fill="#de6d72" fill-rule="evenodd"/></g><g><path clip-rule="evenodd" d="m73.6 53.5c-.6 3-1.4 6-2.4 9-1.3 3.9-3 7.5-5.1 10.8.7-.2 1.4-.6 2.1-1.2 5-4.7 9.3-10.2 11.9-16.5.5-1.3 2.4-6.6-1.2-4.6-1.7 1-3.5 1.9-5.3 2.5z" fill="#de6d72" fill-rule="evenodd"/></g><g><path clip-rule="evenodd" d="m16.7 45.7c-3.6 8-2 18 2.8 25.2 3.7 5.6 8.9 9.5 15.5 11.1 5.5 1.3 11.2.9 16.6-.7 2.7-.8 3.6-3.3 2-6-4-6.6-6.4-12.1-2.7-19.7 1.1-2.3 1.2-5 .7-7.7-1.1-6.4-3.4-11.4-10-13.1-3.7-.9-8-.8-10.6-.2-6.5 1.5-11.6 5.1-14.3 11.1z" fill="#ff7f85" fill-rule="evenodd"/></g><g><path clip-rule="evenodd" d="m32.7 52.8c-3.3 0-6 2.7-6 6s2.7 6 6 6 6-2.7 6-6-2.7-6-6-6z" fill="#e5f2ff" fill-rule="evenodd"/></g><g><path d="m32.7 51.3c-4.1 0-7.5 3.4-7.5 7.5s3.4 7.5 7.5 7.5 7.5-3.4 7.5-7.5-3.3-7.5-7.5-7.5zm0 12c-2.5 0-4.5-2-4.5-4.5s2-4.5 4.5-4.5 4.5 2 4.5 4.5-2 4.5-4.5 4.5z"/><path d="m78.2 49.7c-3.1 1.7-5.7 2.8-8.3 3.4-2.1.5-4.1.5-6.2.2-3.9-.6-5.3 1.4-5.9 2.9-.2.5-.4.9-.5 1.3s-.2.7-.4 1.1c-.8 1.6-1.2 3-1.3 4.3-.4 4.2 2.2 8.1 4.9 10.1.9.7 2.7 2 4.8 2 1.2 0 2.6-.4 3.9-1.7 5.7-5.4 9.8-11.1 12.3-17.1 1.4-3.3 1.4-5.5.3-6.6-.7-.5-1.8-.9-3.6.1zm.5 5.3c-2.3 5.5-6.2 10.9-11.6 16-1.2 1.2-2.3 1.4-4.9-.5-2.1-1.5-4-4.6-3.7-7.4.1-.9.4-2 1.1-3.3.3-.6.4-1.1.6-1.5.1-.3.2-.6.4-1 .3-.7.6-1.2 1.8-1.2.3 0 .6 0 .9.1 2.4.4 4.9.3 7.3-.2 2.8-.6 5.7-1.7 8.9-3.6-.2.7-.4 1.7-.8 2.6z"/><path d="m81.2 15.9c-3.7-.9-7.2 1.2-9 3.7-4.5 6.2-8.9 10.1-14 12.1-3 1.3-3.8 3.9-3.2 5.9.3 1.2.7 2.1 1.1 3.1.2.5.4 1 .6 1.6.8 2.3 2.1 4 5.3 5.3 1.4.6 2.8.8 4.2.8 4 0 7.5-2 10.7-3.8.7-.4 1.3-.8 2-1.1l4-2.1s.1-.1.1-.1l.2-.2c1.6-1.1 2.6-2 2.9-5.5.3-3.1.5-6.2.5-9.3.2-5.9-1.8-9.5-5.4-10.4zm2.1 19.2c-.2 2.4-.6 2.7-1.6 3.4l-4.1 2.2c-.7.4-1.4.8-2.1 1.1-4.1 2.3-8 4.5-12.4 2.8-2.5-.9-3.1-2.1-3.6-3.5-.2-.6-.5-1.2-.7-1.7-.4-.9-.7-1.7-1-2.7-.2-.7.1-1.7 1.5-2.3 5.6-2.3 10.4-6.5 15.3-13.1 1-1.4 2.8-2.7 4.8-2.7.3 0 .7 0 1 .1 3 .7 3.3 5.4 3.3 7.3.1 3.1-.1 6.1-.4 9.1z"/><path d="m84.2 8.2c-6.6-2.2-14.3.5-18.7 6.5-6.2 8.5-11.3 11.2-20.2 10.7-1.4-.1-2.9-.2-4.5-.4-4.1-.4-8.3-.8-12.3.1-10.2 2.4-17.8 8.8-21.3 18-4.1 10.5-2.5 23.2 4.2 33.2 7.1 10.5 17.9 16.2 30.3 16.2 1.9 0 3.8-.1 5.7-.4 19.3-2.5 36.5-17.1 42.9-36.2 3.8-11.4 4.7-22.4 4.7-29.8.1-9-4-15.7-10.8-17.9zm3.3 46.7c-6 17.8-22.6 31.9-40.5 34.3-13.8 1.9-25.5-3.3-33.1-14.5-6.1-9.2-7.6-20.9-3.9-30.5 2.3-5.8 7.5-13.3 19.2-16.1 1.5-.4 3.1-.5 4.7-.5 2.2 0 4.4.2 6.6.4 1.5.2 3.1.3 4.6.4 11.4.6 17-4 22.8-12 3.6-5 9.9-7.2 15.3-5.4 5.6 1.8 8.8 7.3 8.7 15.1.1 7.1-.8 17.9-4.4 28.8z"/><path d="m52.1 56.3c1.1-2.4 1.4-5.3.9-8.6-1-5.7-3.1-12.3-11.2-14.3-3.6-.9-8.1-1-11.4-.2-7.1 1.7-12.4 5.8-15.1 11.9-3.6 8.1-2.5 18.5 3 26.6 4.1 6.2 9.6 10.1 16.3 11.8 2.2.6 4.6.8 7 .8 3.3 0 6.8-.5 10.4-1.5 1.7-.5 3-1.6 3.5-3 .6-1.6.4-3.4-.7-5.2-3.7-6.3-6.1-11.2-2.7-18.3zm.6 22.4c-.3.7-1 1.1-1.6 1.2-5.7 1.6-11 1.9-15.8.7-6-1.5-10.9-5-14.6-10.5-4.7-7.2-5.8-16.7-2.7-23.8 2.4-5.3 6.8-8.7 13.1-10.2 1.2-.3 2.7-.5 4.4-.5 1.8 0 3.7.2 5.5.6 5.1 1.3 7.7 4.7 8.9 11.8.5 2.7.3 5-.6 6.8-4.1 8.4-1.1 14.6 2.8 21.1.7 1.2.9 2.1.6 2.8z"/></g></g></g></svg>